<?xml version="1.0" standalone="no"?>
<!DOCTYPE svg PUBLIC "-//W3C//DTD SVG 20010904//EN"
 "http://www.w3.org/TR/2001/REC-SVG-20010904/DTD/svg10.dtd">
<svg version="1.0" xmlns="http://www.w3.org/2000/svg"
 width="40.000000pt" height="40.000000pt" viewBox="0 0 40.000000 40.000000"
 preserveAspectRatio="xMidYMid meet">

<g transform="translate(0.000000,40.000000) scale(0.100000,-0.100000)"
fill="#000000" stroke="none">
<path d="M253 382 c-19 -14 -21 -22 -15 -46 l8 -30 26 35 c14 19 28 40 32 47
11 18 -25 15 -51 -6z"/>
<path d="M104 346 c4 -16 16 -41 27 -54 16 -21 19 -41 19 -137 0 -124 7 -139
56 -133 37 4 42 25 42 158 -1 64 -3 89 -7 65 -6 -38 -8 -40 -43 -43 l-38 -3 0
59 c0 52 -3 61 -31 88 l-32 29 7 -29z m111 -282 c0 -10 -8 -20 -18 -22 -22 -4
-35 27 -16 39 20 12 34 5 34 -17z"/>
<path d="M190 59 c0 -5 5 -7 10 -4 6 3 10 8 10 11 0 2 -4 4 -10 4 -5 0 -10 -5
-10 -11z"/>
<path d="M190 240 c0 -5 5 -10 11 -10 5 0 7 5 4 10 -3 6 -8 10 -11 10 -2 0 -4
-4 -4 -10z"/>
</g>
</svg>
